<svg width="24" height="20" viewBox="0 0 24 20" fill="none" xmlns="http://www.w3.org/2000/svg">
<g clip-path="url(#clip0_1_225)">
<path d="M20.9265 3.78346H15.2234V5.16739H20.9265V3.78346ZM18.114 8.53793C17.4444 8.53793 16.9012 8.73324 16.4845 9.12387C16.0679 9.51449 15.8372 10.0446 15.7926 10.7143H20.3462C20.2122 9.26338 19.4682 8.53793 18.114 8.53793ZM18.2926 15.0669C18.7613 15.0669 19.2152 14.9479 19.6542 14.7098C20.0932 14.4717 20.3759 14.148 20.5024 13.7388H22.9689C22.2249 16.023 20.6363 17.1652 18.2033 17.1652C16.611 17.1652 15.3443 16.6741 14.4031 15.6919C13.4619 14.7098 12.9912 13.4189 12.9912 11.8192C12.9912 10.2716 13.4767 8.98622 14.4477 7.96315C15.4187 6.94009 16.6706 6.42855 18.2033 6.42855C19.2301 6.42855 20.1248 6.68153 20.8875 7.18748C21.6501 7.69343 22.2193 8.35936 22.595 9.18525C22.9708 10.0111 23.1587 10.9338 23.1587 11.9531C23.1587 12.0796 23.1512 12.2544 23.1363 12.4777H15.7926C15.7926 13.3036 16.0065 13.9416 16.4343 14.3917C16.8622 14.8419 17.4816 15.0669 18.2926 15.0669ZM3.39303 14.5089H6.6966C8.2219 14.5089 8.98455 13.8876 8.98455 12.6451C8.98455 11.3058 8.24422 10.6361 6.76357 10.6361H3.39303V14.5089ZM3.39303 8.51561H6.52919C7.10955 8.51561 7.569 8.37982 7.90754 8.10824C8.24608 7.83666 8.41535 7.41442 8.41535 6.8415C8.41535 5.77007 7.70851 5.23436 6.29482 5.23436H3.39303V8.51561ZM0.301514 2.8348H6.93098C7.5783 2.8348 8.15494 2.88689 8.66089 2.99105C9.16684 3.09522 9.63745 3.27193 10.0727 3.52119C10.508 3.77044 10.8428 4.12945 11.0772 4.5982C11.3116 5.06695 11.4287 5.63986 11.4287 6.31695C11.4287 7.66367 10.7889 8.6421 9.5091 9.25221C10.3573 9.49031 10.9972 9.91814 11.4287 10.5357C11.8603 11.1533 12.0761 11.9122 12.0761 12.8125C12.0761 13.3705 11.9849 13.8783 11.8026 14.3359C11.6203 14.7935 11.3748 15.1786 11.066 15.4911C10.7572 15.8036 10.3908 16.0677 9.96669 16.2835C9.54259 16.4992 9.09244 16.6555 8.61625 16.7522C8.14006 16.8489 7.64154 16.8973 7.12071 16.8973H0.301514V2.8348Z" fill="#F8F9FA"/>
</g>
<defs>
<clipPath id="clip0_1_225">
<rect width="22.86" height="20" fill="white" transform="matrix(1 0 0 -1 0.300049 20)"/>
</clipPath>
</defs>
</svg>
