<svg width="18" height="20" viewBox="0 0 18 20" fill="none" xmlns="http://www.w3.org/2000/svg">
<g clip-path="url(#clip0_1_219)">
<path d="M5.1076 2.57814C5.1076 2.57814 5.43591 2.38655 6.09253 2.00336C6.74915 1.62018 7.85499 1.42859 9.41005 1.42859C10.9651 1.42859 12.3993 1.81177 13.7125 2.57814C15.0258 3.34451 16.0656 4.38431 16.8319 5.69756C17.5983 7.0108 17.9815 8.44495 17.9815 10C17.9815 11.8676 17.4365 13.5473 16.3464 15.0391C15.2564 16.5309 13.8483 17.5633 12.1221 18.1362C11.9212 18.1734 11.7724 18.1473 11.6757 18.0581C11.5789 17.9688 11.5306 17.8572 11.5306 17.7232C11.5306 17.7009 11.5324 17.4163 11.5362 16.8694C11.5399 16.3226 11.5417 15.8222 11.5417 15.3683C11.5417 14.6466 11.3483 14.1183 10.9614 13.7835C11.3855 13.7389 11.7668 13.6719 12.1054 13.5826C12.4439 13.4933 12.7936 13.3482 13.1545 13.1473C13.5153 12.9464 13.8167 12.699 14.0585 12.4051C14.3003 12.1112 14.4975 11.7206 14.65 11.2333C14.8025 10.7459 14.8788 10.186 14.8788 9.55359C14.8788 8.66817 14.5849 7.9018 13.9971 7.25448C14.2724 6.5774 14.2426 5.81847 13.9078 4.97769C13.6995 4.91073 13.3981 4.95165 13.0038 5.10046C12.6095 5.24927 12.2672 5.41296 11.977 5.59153L11.5529 5.85939C10.8609 5.66594 10.1467 5.56921 9.41005 5.56921C8.67344 5.56921 7.95916 5.66594 7.26719 5.85939C7.14815 5.77754 6.99004 5.6771 6.79286 5.55805C6.59569 5.439 6.28505 5.29577 5.86094 5.12836C5.43684 4.96095 5.12062 4.91073 4.91228 4.97769C4.57746 5.81847 4.5477 6.5774 4.823 7.25448C4.2352 7.9018 3.9413 8.66817 3.9413 9.55359C3.9413 10.186 4.01757 10.7441 4.1701 11.2277C4.32263 11.7113 4.51794 12.1019 4.75603 12.3996C4.99413 12.6972 5.29361 12.9464 5.65447 13.1473C6.01533 13.3482 6.36504 13.4933 6.70358 13.5826C7.04212 13.6719 7.42344 13.7389 7.84755 13.7835C7.55737 14.0514 7.37508 14.4345 7.30068 14.9331C7.14443 15.0075 6.97702 15.0633 6.79844 15.1005C6.61987 15.1377 6.40782 15.1563 6.16228 15.1563C5.91675 15.1563 5.67307 15.0763 5.43126 14.9163C5.18944 14.7563 4.98297 14.5238 4.81184 14.2188C4.67047 13.9807 4.49004 13.7872 4.27054 13.6384C4.05105 13.4896 3.8669 13.4003 3.71809 13.3706L3.49487 13.3371C3.33862 13.3371 3.23074 13.3538 3.17121 13.3873C3.11169 13.4208 3.09309 13.4636 3.11541 13.5156C3.13773 13.5677 3.17121 13.6198 3.21586 13.6719C3.2605 13.724 3.30886 13.7686 3.36094 13.8058L3.43907 13.8616C3.60276 13.936 3.76459 14.0774 3.92456 14.2857C4.08453 14.4941 4.20172 14.6838 4.27612 14.8549L4.38773 15.1116C4.48446 15.3944 4.64815 15.6232 4.8788 15.798C5.10946 15.9729 5.35871 16.0845 5.62657 16.1328C5.89443 16.1812 6.15298 16.2072 6.40224 16.211C6.65149 16.2147 6.85797 16.2017 7.02166 16.1719L7.27835 16.1272C7.27835 16.41 7.28021 16.7392 7.28394 17.115C7.28766 17.4907 7.28952 17.6935 7.28952 17.7232C7.28952 17.8572 7.24115 17.9688 7.14443 18.0581C7.0477 18.1473 6.89889 18.1734 6.698 18.1362C4.97181 17.5633 3.5637 16.5309 2.47367 15.0391C1.38364 13.5473 0.838623 11.8676 0.838623 10C0.838623 8.44495 1.22181 7.0108 1.98818 5.69756C2.75455 4.38431 3.79435 3.34451 5.1076 2.57814ZM4.08639 13.7389C4.10871 13.6868 4.08267 13.6421 4.00827 13.6049C3.93386 13.5826 3.8855 13.59 3.86318 13.6272C3.84086 13.6793 3.8669 13.724 3.9413 13.7612C4.00827 13.8058 4.05663 13.7984 4.08639 13.7389ZM4.43237 14.1183C4.48446 14.0811 4.47702 14.0216 4.41005 13.9397C4.33565 13.8728 4.27612 13.8616 4.23148 13.9063C4.1794 13.9435 4.18684 14.003 4.2538 14.0848C4.32821 14.1592 4.38773 14.1704 4.43237 14.1183ZM4.76719 14.6206C4.83416 14.5685 4.83416 14.4978 4.76719 14.4085C4.70767 14.3118 4.64443 14.2894 4.57746 14.3415C4.5105 14.3787 4.5105 14.4457 4.57746 14.5424C4.64443 14.6392 4.70767 14.6652 4.76719 14.6206ZM5.23594 15.0893C5.29547 15.0298 5.28059 14.9591 5.1913 14.8772C5.10202 14.788 5.02761 14.7768 4.96809 14.8438C4.90112 14.9033 4.916 14.974 5.01273 15.0558C5.10202 15.1451 5.17642 15.1563 5.23594 15.0893ZM5.8721 15.3683C5.89443 15.2865 5.84606 15.2269 5.72702 15.1897C5.61541 15.16 5.54472 15.186 5.51496 15.2679C5.4852 15.3497 5.53356 15.4055 5.66005 15.4353C5.77166 15.4799 5.84234 15.4576 5.8721 15.3683ZM6.57523 15.4241C6.57523 15.3274 6.51199 15.2865 6.3855 15.3014C6.26645 15.3014 6.20693 15.3423 6.20693 15.4241C6.20693 15.5208 6.27017 15.5618 6.39666 15.5469C6.51571 15.5469 6.57523 15.506 6.57523 15.4241ZM7.22255 15.3125C7.20767 15.2307 7.14071 15.1972 7.02166 15.2121C6.90261 15.2344 6.85053 15.2902 6.86541 15.3795C6.88029 15.4688 6.94725 15.4985 7.0663 15.4688C7.18535 15.439 7.23743 15.3869 7.22255 15.3125Z" fill="#F8F9FA"/>
</g>
<defs>
<clipPath id="clip0_1_219">
<rect width="17.16" height="20" fill="white" transform="matrix(1 0 0 -1 0.830078 20)"/>
</clipPath>
</defs>
</svg>
