<svg width="18" height="20" viewBox="0 0 18 20" fill="none" xmlns="http://www.w3.org/2000/svg">
<g clip-path="url(#clip0_1_223)">
<path d="M10.7401 12.0201C10.7401 12.0201 10.8796 11.8806 11.1586 11.6015C11.4376 11.3225 11.5771 10.7887 11.5771 9.99998C11.5771 9.21129 11.2981 8.53793 10.7401 7.97989C10.182 7.42186 9.50868 7.14284 8.71999 7.14284C7.9313 7.14284 7.25793 7.42186 6.6999 7.97989C6.14186 8.53793 5.86284 9.21129 5.86284 9.99998C5.86284 10.7887 6.14186 11.462 6.6999 12.0201C7.25793 12.5781 7.9313 12.8571 8.71999 12.8571C9.50868 12.8571 10.182 12.5781 10.7401 12.0201ZM11.8338 6.88614C11.8338 6.88614 12.0477 7.10006 12.4756 7.52789C12.9034 7.95571 13.1173 8.77975 13.1173 9.99998C13.1173 11.2202 12.6895 12.2582 11.8338 13.1138C10.9782 13.9695 9.94023 14.3973 8.71999 14.3973C7.49975 14.3973 6.4618 13.9695 5.60615 13.1138C4.75049 12.2582 4.32267 11.2202 4.32267 9.99998C4.32267 8.77975 4.75049 7.7418 5.60615 6.88614C6.4618 6.03049 7.49975 5.60266 8.71999 5.60266C9.94023 5.60266 10.9782 6.03049 11.8338 6.88614ZM14.0213 4.69864C14.0213 4.69864 14.0715 4.74887 14.172 4.84931C14.2724 4.94976 14.3227 5.14135 14.3227 5.42409C14.3227 5.70683 14.2222 5.94864 14.0213 6.14954C13.8204 6.35043 13.5786 6.45088 13.2959 6.45088C13.0131 6.45088 12.7713 6.35043 12.5704 6.14954C12.3695 5.94864 12.2691 5.70683 12.2691 5.42409C12.2691 5.14135 12.3695 4.89954 12.5704 4.69864C12.7713 4.49775 13.0131 4.3973 13.2959 4.3973C13.5786 4.3973 13.8204 4.49775 14.0213 4.69864ZM9.57378 2.96315C9.57378 2.96315 9.4445 2.96408 9.18595 2.96594C8.92739 2.9678 8.77207 2.96873 8.71999 2.96873C8.6679 2.96873 8.38331 2.96687 7.86619 2.96315C7.34908 2.95943 6.95659 2.95943 6.68874 2.96315C6.42088 2.96687 6.06188 2.97803 5.61173 2.99664C5.16158 3.01524 4.7784 3.05244 4.46218 3.10824C4.14596 3.16405 3.87996 3.23287 3.66418 3.31472C3.29216 3.46353 2.96478 3.6793 2.68204 3.96204C2.3993 4.24478 2.18353 4.57216 2.03472 4.94418C1.95287 5.15995 1.88405 5.42595 1.82825 5.74217C1.77244 6.05839 1.73524 6.44158 1.71664 6.89172C1.69804 7.34187 1.68688 7.70088 1.68316 7.96873C1.67944 8.23659 1.67944 8.62908 1.68316 9.14619C1.68688 9.6633 1.68874 9.9479 1.68874 9.99998C1.68874 10.0521 1.68688 10.3367 1.68316 10.8538C1.67944 11.3709 1.67944 11.7634 1.68316 12.0312C1.68688 12.2991 1.69804 12.6581 1.71664 13.1082C1.73524 13.5584 1.77244 13.9416 1.82825 14.2578C1.88405 14.574 1.95287 14.84 2.03472 15.0558C2.18353 15.4278 2.3993 15.7552 2.68204 16.0379C2.96478 16.3207 3.29216 16.5364 3.66418 16.6853C3.87996 16.7671 4.14596 16.8359 4.46218 16.8917C4.7784 16.9475 5.16158 16.9847 5.61173 17.0033C6.06188 17.0219 6.42088 17.0331 6.68874 17.0368C6.95659 17.0405 7.34908 17.0405 7.86619 17.0368C8.38331 17.0331 8.6679 17.0312 8.71999 17.0312C8.77207 17.0312 9.05667 17.0331 9.57378 17.0368C10.0909 17.0405 10.4834 17.0405 10.7512 17.0368C11.0191 17.0331 11.3781 17.0219 11.8282 17.0033C12.2784 16.9847 12.6616 16.9475 12.9778 16.8917C13.294 16.8359 13.56 16.7671 13.7758 16.6853C14.1478 16.5364 14.4752 16.3207 14.7579 16.0379C15.0407 15.7552 15.2564 15.4278 15.4053 15.0558C15.4871 14.84 15.5559 14.574 15.6117 14.2578C15.6675 13.9416 15.7047 13.5584 15.7233 13.1082C15.7419 12.6581 15.7531 12.2991 15.7568 12.0312C15.7605 11.7634 15.7605 11.3709 15.7568 10.8538C15.7531 10.3367 15.7512 10.0521 15.7512 9.99998C15.7512 9.9479 15.7531 9.6633 15.7568 9.14619C15.7605 8.62908 15.7605 8.23659 15.7568 7.96873C15.7531 7.70088 15.7419 7.34187 15.7233 6.89172C15.7047 6.44158 15.6675 6.05839 15.6117 5.74217C15.5559 5.42595 15.4871 5.15995 15.4053 4.94418C15.2564 4.57216 15.0407 4.24478 14.7579 3.96204C14.4752 3.6793 14.1478 3.46353 13.7758 3.31472C13.56 3.23287 13.294 3.16405 12.9778 3.10824C12.6616 3.05244 12.2784 3.01524 11.8282 2.99664C11.3781 2.97803 11.0191 2.96687 10.7512 2.96315C10.4834 2.95943 10.0909 2.95943 9.57378 2.96315ZM17.2356 6.46204C17.2728 7.1168 17.2914 8.29611 17.2914 9.99998C17.2914 11.7039 17.2728 12.8832 17.2356 13.5379C17.1612 15.0855 16.6999 16.2835 15.8517 17.1317C15.0035 17.9799 13.8056 18.4412 12.2579 18.5156C11.6032 18.5528 10.4239 18.5714 8.71999 18.5714C7.01612 18.5714 5.8368 18.5528 5.18204 18.5156C3.63442 18.4412 2.43651 17.9799 1.58829 17.1317C0.740077 16.2835 0.278768 15.0855 0.204363 13.5379C0.167161 12.8832 0.14856 11.7039 0.14856 9.99998C0.14856 8.29611 0.167161 7.1168 0.204363 6.46204C0.278768 4.91442 0.740077 3.7165 1.58829 2.86829C2.43651 2.02007 3.63442 1.55876 5.18204 1.48436C5.8368 1.44716 7.01612 1.42856 8.71999 1.42856C10.4239 1.42856 11.6032 1.44716 12.2579 1.48436C13.8056 1.55876 15.0035 2.02007 15.8517 2.86829C16.6999 3.7165 17.1612 4.91442 17.2356 6.46204Z" fill="#F8F9FA"/>
</g>
<defs>
<clipPath id="clip0_1_223">
<rect width="17.16" height="20" fill="white" transform="matrix(1 0 0 -1 0.140015 20)"/>
</clipPath>
</defs>
</svg>
