<svg width="19" height="20" viewBox="0 0 19 20" fill="none" xmlns="http://www.w3.org/2000/svg">
<g clip-path="url(#clip0_1_221)">
<path d="M4.88361 6.97544V18.0357H1.20058V6.97544H4.88361ZM5.11799 3.56026C5.12543 4.10341 4.93756 4.55728 4.55437 4.92187C4.17119 5.28645 3.6671 5.46874 3.0421 5.46874H3.01978C2.40966 5.46874 1.91858 5.28645 1.54656 4.92187C1.17454 4.55728 0.988525 4.10341 0.988525 3.56026C0.988525 3.00966 1.18012 2.55393 1.5633 2.19307C1.94649 1.83221 2.44686 1.65178 3.06442 1.65178C3.68198 1.65178 4.17677 1.83221 4.54879 2.19307C4.92082 2.55393 5.11055 3.00966 5.11799 3.56026ZM18.1314 11.6964V18.0357H14.4595V12.1205C14.4595 11.3393 14.3088 10.7273 14.0075 10.2846C13.7062 9.84188 13.2355 9.62053 12.5957 9.62053C12.1269 9.62053 11.7344 9.74888 11.4182 10.0056C11.102 10.2623 10.8658 10.5803 10.7095 10.9598C10.6277 11.183 10.5867 11.4844 10.5867 11.8638V18.0357H6.91486C6.92975 15.067 6.93719 12.66 6.93719 10.8147C6.93719 8.96949 6.93347 7.86829 6.92603 7.51115L6.91486 6.97544H10.5867V8.58258H10.5644C10.7132 8.34449 10.8658 8.13615 11.022 7.95758C11.1783 7.77901 11.3885 7.58556 11.6526 7.37722C11.9167 7.16889 12.2404 7.00706 12.6236 6.89173C13.0068 6.7764 13.4327 6.71874 13.9015 6.71874C15.1738 6.71874 16.1969 7.14099 16.9707 7.98548C17.7445 8.82998 18.1314 10.067 18.1314 11.6964Z" fill="#F8F9FA"/>
</g>
<defs>
<clipPath id="clip0_1_221">
<rect width="17.16" height="20" fill="white" transform="matrix(1 0 0 -1 0.97998 20)"/>
</clipPath>
</defs>
</svg>
